<?xml version="1.0" encoding="UTF-8"?><!DOCTYPE svg PUBLIC "-//W3C//DTD SVG 1.1//EN" "http://www.w3.org/Graphics/SVG/1.1/DTD/svg11.dtd"><svg xmlns="http://www.w3.org/2000/svg"><defs><style>.cls-1{isolation:isolate}.cls-2{fill:#e74c3c;fill-rule:evenodd}</style><style>.cls-1{isolation:isolate}.cls-2{fill:#e74c3c;fill-rule:evenodd}</style><style>.cls-1{isolation:isolate}.cls-2{fill-rule:evenodd}</style><style>.cls-1{isolation:isolate}.cls-2{fill-rule:evenodd}</style><style>.cls-1{fill:#f4f5f9}.cls-2,.cls-3{font-size:36px}.cls-2{fill:#4a4c55;font-family:OpenSans-Bold,OpenSans Bold;font-weight:700;letter-spacing:.03em}.cls-3{fill:#f1ebe7;font-family:OpenSans-Light,OpenSans Light;letter-spacing:.02em}</style><style>.cls-1{isolation:isolate}.cls-2{fill-rule:evenodd}</style><style>.cls-1{isolation:isolate}.cls-2{fill:#e74c3c;fill-rule:evenodd}</style><style>.cls-1{isolation:isolate}.cls-2{fill:#e74c3c;fill-rule:evenodd}</style><style>.cls-1{isolation:isolate}.cls-2{fill-rule:evenodd}</style><style>.cls-1{isolation:isolate}.cls-2{fill-rule:evenodd}</style><style>.cls-1{isolation:isolate}.cls-2{fill-rule:evenodd}</style><style>.cls-1{isolation:isolate}.cls-2{fill-rule:evenodd}</style><style>.cls-1{isolation:isolate}.cls-2{fill-rule:evenodd}</style></defs><symbol id="anchor" viewBox="0 0 22 31"><title>anchor</title><g id="anchor" class="cls-1"><path class="cls-2" d="M21.89 17.3l-2.51-3.77a.63.63 0 0 0-1.06 0l-2.51 3.77a.67.67 0 0 0 0 .67.64.64 0 0 0 .57.35h1.24a6.85 6.85 0 0 1-5.08 4.61V8.47h2a1 1 0 0 0 0-2h-1a3.73 3.73 0 0 0 1.18-2.72 3.64 3.64 0 1 0-7.28 0 3.73 3.73 0 0 0 1.1 2.68h-1a1 1 0 0 0 0 2h2v14.5a6.85 6.85 0 0 1-5.08-4.61h1.2a.64.64 0 0 0 .57-.32.67.67 0 0 0 0-.67l-2.55-3.81a.63.63 0 0 0-1.06 0L.11 17.3a.67.67 0 0 0 0 .67.64.64 0 0 0 .57.35H2a11.08 11.08 0 0 0 6.78 8.24l-.25.31a.66.66 0 0 0 0 .77l2 3.06a.63.63 0 0 0 1.07 0l2-3.06a.66.66 0 0 0 0-.77l-.25-.31A11.08 11.08 0 0 0 20 18.32h1.35a.64.64 0 0 0 .57-.35.67.67 0 0 0-.03-.67zM11 5.39a1.68 1.68 0 1 1 1.65-1.68A1.66 1.66 0 0 1 11 5.39z" id="anchor-2" data-name="anchor"/></g></symbol><symbol id="books" viewBox="0 0 31 25.97"><title>books</title><g id="books" class="cls-1"><path class="cls-2" d="M18.56 3.33l6.32 3a.22.22 0 0 0 .3-.09.21.21 0 0 0-.09-.24l-6.32-3h-.11a.22.22 0 0 0-.09.41zM2 8.82l2.25 1.07a.22.22 0 0 0 .3-.09.21.21 0 0 0-.09-.29l-1.83-.89L7 6.53a.21.21 0 0 0 .11-.29.22.22 0 0 0-.2-.12h-.1L2 8.43a.21.21 0 0 0-.1.29.22.22 0 0 0 .1.1zm10.24-2.44l6.32 3a.22.22 0 0 0 .3-.1.21.21 0 0 0-.1-.29L12.44 6h-.11a.22.22 0 0 0-.21.22.22.22 0 0 0 .12.16zm3.16-1.52l6.32 3a.22.22 0 0 0 .3-.09.22.22 0 0 0-.09-.29l-6.32-3h-.11a.22.22 0 0 0-.21.22.22.22 0 0 0 .11.16zM.77 9.62l8.53 4.12a.46.46 0 0 0 .2 0l8.5-.11a.45.45 0 0 0 .19 0l12-5.79a1.18 1.18 0 0 0 .77-1 1.18 1.18 0 0 0-.77-1L18.86.31a3.54 3.54 0 0 0-2.92 0L.77 7.63a1.18 1.18 0 0 0-.77 1 1.18 1.18 0 0 0 .77.99zm10 3.27l2.79-1.35 2.59 1.25zM1.17 8.4l15.16-7.31a3.06 3.06 0 0 1 2.14 0l11.37 5.49c.27.13.28.23.28.22s0 .09-.28.22L18 12.71l-4.23-2a.45.45 0 0 0-.39 0l-4.23 2-8-3.87C.9 8.72.89 8.62.89 8.62s.01-.09.28-.22zm12.06 15.79a.27.27 0 0 0 .24 0l5.38-2.63a.26.26 0 0 0 .13-.35.27.27 0 0 0-.37-.12l-5.26 2.57-4.72-2.36a.27.27 0 0 0-.36.11.26.26 0 0 0 .11.36zm5.5-8.38a.27.27 0 0 0-.12 0l-5.26 2.57-4.72-2.33a.27.27 0 0 0-.36.12.26.26 0 0 0 .12.35l4.84 2.42a.28.28 0 0 0 .24 0l5.38-2.63A.26.26 0 0 0 19 16a.27.27 0 0 0-.27-.19zm11.65-4.21a.55.55 0 0 0-.24.06L13.42 19.6.79 13.4a.54.54 0 0 0-.72.23.52.52 0 0 0 .23.71l12.87 6.32a.55.55 0 0 0 .48 0l17-8.06a.52.52 0 0 0 .26-.7.54.54 0 0 0-.53-.3zm0 5.25a.54.54 0 0 0-.24.06l-16.72 7.94-12.63-6.2a.54.54 0 0 0-.73.22.52.52 0 0 0 .22.71l12.87 6.32a.55.55 0 0 0 .48 0l17-8.06a.52.52 0 0 0 .26-.7.54.54 0 0 0-.51-.29z" id="books-2" data-name="books"/></g></symbol><symbol id="facebook" viewBox="0 0 9.95 19.99"><title>facebook</title><g id="facebook" class="cls-1"><path class="cls-2" d="M7.81 3.32H10V0H7.2C3.55.14 2.57 2.2 2.5 4.37v2.29H0V10h2.5v10h4.13V10h2.51l.6-3.32H6.63v-2a1.2 1.2 0 0 1 1.18-1.36z" transform="translate(-.01)" id="facebook-2" data-name="facebook"/></g></symbol><symbol id="gplus" viewBox="0 0 19.92 17.5"><title>gplus</title><g id="google_plus" data-name="google plus" class="cls-1"><path class="cls-2" d="M12.4.84H6.76c-2.53 0-4.9 1.75-4.9 4a4 4 0 0 0 4.29 4c.18 0 .35 0 .52-.06a2.23 2.23 0 0 0-.29 1 2.19 2.19 0 0 0 .77 1.55h-1c-3.13 0-6 1.69-6 3.76s3.08 3.19 6.21 3.19c3.57 0 5.41-1.59 5.41-3.64A3.84 3.84 0 0 0 10 11c-.51-.36-1.48-1.24-1.48-1.76s.17-.9 1.08-1.62a3.47 3.47 0 0 0 1.49-2.83c0-1.42-.53-3.14-1.71-3.14h1.79zm-2.18 13.51a2.55 2.55 0 0 1 .07.58c0 1.65-.85 2.5-3.89 2.5-2.16 0-3.72-.93-3.72-2.59s1.94-3 4.1-2.94a4.73 4.73 0 0 1 1.4.22c1.17.88 1.82 1.3 2.04 2.23zM7 8.19c-1.45 0-2.83-1.63-3.08-3.55s.72-3.38 2.17-3.34 2.8 1.59 3.05 3.5S8.42 8.23 7 8.19zm10.68-4V1.63H16v2.54h-2.5v1.68H16v2.5h1.66v-2.5h2.48V4.17z" transform="translate(-.2 -.84)" id="google_plus-2" data-name="google plus"/></g></symbol><symbol id="hero-logo" viewBox="0 0 141 52"><title>hero-logo</title><path class="cls-1" d="M0 0h51.68v52H0z" id="Rectangle_1" data-name="Rectangle 1"/><path class="cls-1" d="M138 3v46H45V3h93m3-3H42v52h99V0z" id="Rectangle_1_copy" data-name="Rectangle 1 copy"/><text class="cls-2" transform="matrix(.99 0 0 1 14.35 40.17)" id="B">B</text><text class="cls-3" transform="matrix(.99 0 0 1 61.71 39.6)" id="INO">INO</text></symbol><symbol id="kiwi" viewBox="0 65.326 612 502.174"><ellipse fill="#C6C6C6" cx="283.5" cy="487.5" rx="259" ry="80"/><path d="M210.333 65.331c-105.966.774-222.682 85.306-209.277 211.118 4.303 40.393 18.533 63.704 52.171 79.03 36.307 16.544 57.022 54.556 50.406 112.954-9.935 4.88-17.405 11.031-19.132 20.015 7.531-.17 14.943-.312 22.59 4.341 20.333 12.375 31.296 27.363 42.979 51.72 1.714 3.572 8.192 2.849 8.312-3.078.17-8.467-1.856-17.454-5.226-26.933-2.955-8.313 3.059-7.985 6.917-6.106 6.399 3.115 16.334 9.43 30.39 13.098 5.392 1.407 5.995-3.877 5.224-6.991-1.864-7.522-11.009-10.862-24.519-19.229-4.82-2.984-.927-9.736 5.168-8.351l20.234 2.415c3.359.763 4.555-6.114.882-7.875-14.198-6.804-28.897-10.098-53.864-7.799-11.617-29.265-29.811-61.617-15.674-81.681 12.639-17.938 31.216-20.74 39.147 43.489-5.002 3.107-11.215 5.031-11.332 13.024 7.201-2.845 11.207-1.399 14.791 0 17.912 6.998 35.462 21.826 52.982 37.309 3.739 3.303 8.413-1.718 6.991-6.034-2.138-6.494-8.053-10.659-14.791-20.016-3.239-4.495 5.03-7.045 10.886-6.876 13.849.396 22.886 8.268 35.177 11.218 4.483 1.076 9.741-1.964 6.917-6.917-3.472-6.085-13.015-9.124-19.18-13.413-4.357-3.029-3.025-7.132 2.697-6.602 3.905.361 8.478 2.271 13.908 1.767 9.946-.925 7.717-7.169-.883-9.566-19.036-5.304-39.891-6.311-61.665-5.225-43.837-8.358-31.554-84.887 0-90.363 29.571-5.132 62.966-13.339 99.928-32.156 32.668-5.429 64.835-12.446 92.939-33.85 48.106-14.469 111.903 16.113 204.241 149.695 3.926 5.681 15.819 9.94 9.524-6.351-15.893-41.125-68.176-93.328-92.13-132.085-24.581-39.774-14.34-61.243-39.957-91.247-21.326-24.978-47.502-25.803-77.339-17.365-23.461 6.634-39.234-7.117-52.98-31.273-29.365-51.617-81.947-74.215-137.452-73.811zM445.731 203.01c6.12 0 11.112 4.919 11.112 11.038 0 6.119-4.994 11.111-11.112 11.111s-11.038-4.994-11.038-11.111a11.01 11.01 0 0 1 11.038-11.038z"/></symbol><symbol id="linkedin" viewBox="0 0 20.23 18.57"><title>linkedin</title><g id="linkedin" class="cls-1"><path class="cls-2" d="M.71 19.16h4.15V6.67H.71zM15.46 6.25a4.59 4.59 0 0 0-4 2.13V6.67H7.33v12.49h4.14v-6.77c0-1.43.72-2.83 2.36-2.83a2.69 2.69 0 0 1 2.63 2.79v6.8h4.14v-7.07c0-4.92-3.33-5.83-5.14-5.83zM2.8.59a2.33 2.33 0 0 0-2.43 2.2A2.33 2.33 0 0 0 2.8 5a2.33 2.33 0 0 0 2.43-2.2A2.33 2.33 0 0 0 2.8.59z" transform="translate(-.37 -.59)" id="linkedin-2" data-name="linkedin"/></g></symbol><symbol id="monitor" viewBox="0 0 27 22"><title>monitor</title><g id="monitor" class="cls-1"><path class="cls-2" d="M20.62 21.12h-5.19v-1.91a.45.45 0 0 0-.89 0v1.91h-2.08v-1.91a.45.45 0 0 0-.89 0v1.91H6.38a.44.44 0 1 0 0 .88h14.24a.44.44 0 1 0 0-.88zM26 0H1a1 1 0 0 0-1 1v15.87a1 1 0 0 0 1 1h19.77V18a.45.45 0 0 0 .89 0v-.15h.89V18a.45.45 0 0 0 .89 0v-.15h.89V18a.45.45 0 0 0 .89 0v-.15H26a1 1 0 0 0 1-1V1a1 1 0 0 0-1-1zm.15 16.87A.15.15 0 0 1 26 17H1a.15.15 0 0 1-.15-.15V1A.15.15 0 0 1 1 .88h25a.15.15 0 0 1 .15.15zM24.77 1.76H2.23a.44.44 0 1 0 0 .88h22.1v8.95a.45.45 0 0 0 .89 0V2.2a.44.44 0 0 0-.45-.44zm0 11.15a.44.44 0 0 0-.45.44v1.91H2.67V4a.45.45 0 0 0-.89 0v11.69a.44.44 0 0 0 .45.44h22.54a.44.44 0 0 0 .45-.44v-2.34a.44.44 0 0 0-.45-.44z" id="monitor-2" data-name="monitor"/></g></symbol><symbol id="photo" viewBox="0 0 25 22"><title>photo</title><g id="photo" class="cls-1"><path class="cls-2" d="M21.65 4.2H19L16.51.39a.83.83 0 0 0-.69-.39H9.05a.83.83 0 0 0-.67.38l-2.6 3.81H3.35A3.39 3.39 0 0 0 0 7.6v11A3.41 3.41 0 0 0 3.35 22h18.3A3.41 3.41 0 0 0 25 18.58V7.6a3.39 3.39 0 0 0-3.35-3.4zm0 16.13H3.35a1.75 1.75 0 0 1-1.7-1.75V7.6a1.72 1.72 0 0 1 1.7-1.73h2.87a.82.82 0 0 0 .68-.37l2.6-3.81h5.89l2.5 3.79a.85.85 0 0 0 .67.38h3.08a1.72 1.72 0 0 1 1.7 1.73v11a1.75 1.75 0 0 1-1.69 1.74zM12.57 6.21a5.91 5.91 0 1 0 5.84 5.91 5.88 5.88 0 0 0-5.84-5.91zm0 10.16a4.24 4.24 0 1 1 4.19-4.24 4.23 4.23 0 0 1-4.19 4.23zm7.82-8a.32.32 0 1 0 .32.32.32.32 0 0 0-.33-.36zm0-.83a1.15 1.15 0 1 0 1.14 1.16 1.14 1.14 0 0 0-1.15-1.2zm0 1.67a.51.51 0 0 1-.51-.51.51.51 0 1 1 1 0 .51.51 0 0 1-.5.47z" id="photo-2" data-name="photo"/></g></symbol><symbol id="rss" viewBox="0 0 19.87 19.97"><title>rss</title><g id="rss" class="cls-1"><path class="cls-2" d="M3.34 14.18a2.89 2.89 0 1 0 2.9 2.89 2.9 2.9 0 0 0-2.9-2.89zM.59 6.69H.44v3.69h.15A9.5 9.5 0 0 1 10 19.76v.23h3.7v-.23A13.2 13.2 0 0 0 .59 6.69zM.59 0H.44v3.75h.15a16.13 16.13 0 0 1 16.07 16v.23h3.64v-.23A19.81 19.81 0 0 0 .59 0z" transform="translate(-.44 -.02)" id="rss-2" data-name="rss"/></g></symbol><symbol id="skype" viewBox="0 0 19.9 19.99"><title>skype</title><g id="skype" class="cls-1"><path class="cls-2" d="M18.94 11.35A8.94 8.94 0 0 0 19 10a8.69 8.69 0 0 0-8.87-8.68 9 9 0 0 0-1.34.11A5.25 5.25 0 0 0 5.55 0a5.08 5.08 0 0 0-4 8.13 9.12 9.12 0 0 0 8.67 11A8.89 8.89 0 0 0 12 19a4.84 4.84 0 0 0 3.32 1 5.08 5.08 0 0 0 3.61-8.64zm-4.62 2.76a3.42 3.42 0 0 1-1.53 1.17 6.13 6.13 0 0 1-2.39.42 5.76 5.76 0 0 1-2.74-.58A3.53 3.53 0 0 1 6.41 14a2.39 2.39 0 0 1-.48-1.35.87.87 0 0 1 .29-.65 1 1 0 0 1 .73-.27.9.9 0 0 1 .61.21 1.64 1.64 0 0 1 .42.63 4.09 4.09 0 0 0 .46.82 1.84 1.84 0 0 0 .7.55 2.78 2.78 0 0 0 1.19.22 2.83 2.83 0 0 0 1.67-.43 1.28 1.28 0 0 0 .63-1.08 1.1 1.1 0 0 0-.34-.84 2.25 2.25 0 0 0-.88-.49q-.54-.17-1.44-.36a11.21 11.21 0 0 1-2-.61 3.24 3.24 0 0 1-1.29-1 2.34 2.34 0 0 1-.48-1.5 2.44 2.44 0 0 1 .5-1.52 3.16 3.16 0 0 1 1.46-1 6.42 6.42 0 0 1 2.2-.33 6 6 0 0 1 1.79.24 3.89 3.89 0 0 1 1.25.63 2.69 2.69 0 0 1 .73.82 1.78 1.78 0 0 1 .23.84 1 1 0 0 1-1 1 .87.87 0 0 1-.59-.18 2.42 2.42 0 0 1-.44-.59 2.69 2.69 0 0 0-.73-.91 2.27 2.27 0 0 0-1.38-.33 2.52 2.52 0 0 0-1.42.36 1 1 0 0 0-.54.86.83.83 0 0 0 .18.54 1.49 1.49 0 0 0 .5.39 3.6 3.6 0 0 0 .65.26l1.09.27q.95.21 1.72.45a5.47 5.47 0 0 1 1.31.6 2.54 2.54 0 0 1 .84.9 2.67 2.67 0 0 1 .3 1.32 2.88 2.88 0 0 1-.53 1.64z" transform="translate(-.5)" id="skype-2" data-name="skype"/></g></symbol><symbol id="tumblr" viewBox="0 0 11.62 19.99"><title>tumblr</title><g id="tumblr" class="cls-1"><path class="cls-2" d="M9.66 16.71A2.52 2.52 0 0 1 7 14.35v-6h4.14V5H7V0H4.14A5 5 0 0 1 .39 5.14v3.18h2.49v7.13a4.84 4.84 0 0 0 5 4.53 6.65 6.65 0 0 0 4.12-1.1v-3.27a2.67 2.67 0 0 1-2.34 1.1z" transform="translate(-.39)" id="tumblr-2" data-name="tumblr"/></g></symbol><symbol id="twitter" viewBox="0 0 19.9 16.37"><title>twitter</title><g id="twitter" class="cls-1"><path class="cls-2" d="M20.54 3.06a7.17 7.17 0 0 1-2.28.65A4.38 4.38 0 0 0 20 1.47a6.6 6.6 0 0 1-2.56.91 4.21 4.21 0 0 0-3-1.41 4.08 4.08 0 0 0-3.92 4.25 4.16 4.16 0 0 0 .1.92A11.9 11.9 0 0 1 2 1.72a4.34 4.34 0 0 0 1.25 5.6 2.63 2.63 0 0 1-1.79-.47 4 4 0 0 0 3.17 4A3.23 3.23 0 0 1 2.9 11a3.88 3.88 0 0 0 3.67 2.8 7.28 7.28 0 0 1-5.92 1.72 12.29 12.29 0 0 0 6.42 1.82 11.66 11.66 0 0 0 11.77-12v-.05-.06a6.71 6.71 0 0 0 1.7-2.17z" transform="translate(-.65 -.98)" id="twitter-2" data-name="twitter"/></g></symbol><symbol id="vimeo" viewBox="0 0 19.9 17.46"><title>vimeo</title><g id="vimeo" class="cls-1"><path class="cls-2" d="M17 .69c-2.53 0-4.51 1.81-5.36 4.86.93-.44 2.63-.67 2.76.86s-2.17 5.49-3.2 5.49-1.78-4.47-2.05-6.51S8.41 1.5 6.47 1.5 2 4.11.29 5.48l.91 1.24s1.29-1 1.75-.93c1.18.3 2.19 5.07 2.7 6.88s1.14 5.48 3.67 5.48c4.09 0 10.86-10.07 10.86-13.36 0-2.15-.61-4.1-3.18-4.1z" transform="translate(-.29 -.69)" id="vimeo-2" data-name="vimeo"/></g></symbol></svg>