<svg xmlns="http://www.w3.org/2000/svg" viewBox="0 0 22 31"><defs><style>.cls-1{isolation:isolate;}.cls-2{fill:#e74c3c;fill-rule:evenodd;}</style></defs><title>anchor</title><g id="anchor" class="cls-1"><g id="anchor-2" data-name="anchor"><path class="cls-2" d="M21.89,17.3l-2.51-3.77a.63.63,0,0,0-1.06,0L15.81,17.3a.67.67,0,0,0,0,.67.64.64,0,0,0,.57.35h1.24a6.85,6.85,0,0,1-5.08,4.61V8.47h2a1,1,0,0,0,0-2h-1a3.73,3.73,0,0,0,1.18-2.72,3.64,3.64,0,1,0-7.28,0A3.73,3.73,0,0,0,8.54,6.43h-1a1,1,0,0,0,0,2h2V22.93a6.85,6.85,0,0,1-5.08-4.61H5.66A.64.64,0,0,0,6.23,18a.67.67,0,0,0,0-.67L3.68,13.52a.63.63,0,0,0-1.06,0L.11,17.3a.67.67,0,0,0,0,.67.64.64,0,0,0,.57.35H2a11.08,11.08,0,0,0,6.78,8.24l-.25.31a.66.66,0,0,0,0,.77l2,3.06a.63.63,0,0,0,1.07,0l2-3.06a.66.66,0,0,0,0-.77l-.25-.31A11.08,11.08,0,0,0,20,18.32h1.35a.64.64,0,0,0,.57-.35A.67.67,0,0,0,21.89,17.3ZM11,5.39a1.68,1.68,0,1,1,1.65-1.68A1.66,1.66,0,0,1,11,5.39Z" transform="translate(0 0)"/></g></g></svg>