<svg xmlns="http://www.w3.org/2000/svg" viewBox="0 0 31 25.97"><defs><style>.cls-1{isolation:isolate;}.cls-2{fill:#e74c3c;fill-rule:evenodd;}</style></defs><title>books</title><g id="books" class="cls-1"><g id="books-2" data-name="books"><path class="cls-2" d="M18.56,3.33l6.32,3a.22.22,0,0,0,.3-.09A.21.21,0,0,0,25.09,6h0l-6.32-3-.11,0a.22.22,0,0,0-.09.41ZM2,8.82,4.25,9.89a.22.22,0,0,0,.3-.09.21.21,0,0,0-.09-.29h0L2.63,8.62,7,6.53a.21.21,0,0,0,.11-.29.22.22,0,0,0-.2-.12l-.1,0L2,8.43a.21.21,0,0,0-.1.29A.22.22,0,0,0,2,8.82ZM12.24,6.38l6.32,3a.22.22,0,0,0,.3-.1.21.21,0,0,0-.1-.29L12.44,6l-.11,0a.22.22,0,0,0-.21.22A.22.22,0,0,0,12.24,6.38ZM15.4,4.86l6.32,3a.22.22,0,0,0,.3-.09.22.22,0,0,0-.09-.29h0l-6.32-3-.11,0a.22.22,0,0,0-.21.22A.22.22,0,0,0,15.4,4.86ZM.77,9.62,9.3,13.74a.46.46,0,0,0,.2,0L18,13.63a.45.45,0,0,0,.19,0l12-5.79a1.18,1.18,0,0,0,.77-1,1.18,1.18,0,0,0-.77-1L18.86.31a3.54,3.54,0,0,0-2.92,0L.77,7.63a1.18,1.18,0,0,0-.77,1A1.18,1.18,0,0,0,.77,9.62Zm10,3.27,2.79-1.35,2.59,1.25ZM1.17,8.4,16.33,1.09a3.06,3.06,0,0,1,2.14,0L29.84,6.58c.27.13.28.23.28.22s0,.09-.28.22L18,12.71l-4.23-2a.45.45,0,0,0-.39,0l-4.23,2-8-3.87C.9,8.72.89,8.62.89,8.62S.9,8.53,1.17,8.4ZM13.23,24.19a.27.27,0,0,0,.24,0l5.38-2.63a.26.26,0,0,0,.13-.35.27.27,0,0,0-.37-.12l-5.26,2.57L8.63,21.3a.27.27,0,0,0-.36.11.26.26,0,0,0,.11.36h0Zm5.5-8.38a.27.27,0,0,0-.12,0l-5.26,2.57L8.63,16.05a.27.27,0,0,0-.36.12.26.26,0,0,0,.12.35l4.84,2.42a.28.28,0,0,0,.24,0l5.38-2.63A.26.26,0,0,0,19,16,.27.27,0,0,0,18.73,15.81ZM30.38,11.6a.55.55,0,0,0-.24.06L13.42,19.6.79,13.4a.54.54,0,0,0-.72.23.52.52,0,0,0,.23.71h0l12.87,6.32a.55.55,0,0,0,.48,0l17-8.06a.52.52,0,0,0,.26-.7A.54.54,0,0,0,30.38,11.6Zm0,5.25a.54.54,0,0,0-.24.06L13.42,24.85.79,18.65a.54.54,0,0,0-.73.22.52.52,0,0,0,.22.71h0l12.87,6.32a.55.55,0,0,0,.48,0l17-8.06a.52.52,0,0,0,.26-.7A.54.54,0,0,0,30.38,16.85Z" transform="translate(0 0)"/></g></g></svg>