<svg xmlns="http://www.w3.org/2000/svg" viewBox="0 0 19.92 17.5"><defs><style>.cls-1{isolation:isolate;}.cls-2{fill-rule:evenodd;}</style></defs><title>gplus</title><g id="google_plus" data-name="google plus" class="cls-1"><g id="google_plus-2" data-name="google plus"><path class="cls-2" d="M12.4.84H6.76c-2.53,0-4.9,1.75-4.9,4a4,4,0,0,0,4.29,4c.18,0,.35,0,.52-.06a2.23,2.23,0,0,0-.29,1,2.19,2.19,0,0,0,.77,1.55h-1c-3.13,0-6,1.69-6,3.76s3.08,3.19,6.21,3.19c3.57,0,5.41-1.59,5.41-3.64A3.84,3.84,0,0,0,10,11c-.51-.36-1.48-1.24-1.48-1.76s.17-.9,1.08-1.62a3.47,3.47,0,0,0,1.49-2.83c0-1.42-.53-3.14-1.71-3.14h1.79ZM10.22,14.35a2.55,2.55,0,0,1,.07.58c0,1.65-.85,2.5-3.89,2.5-2.16,0-3.72-.93-3.72-2.59s1.94-3,4.1-2.94a4.73,4.73,0,0,1,1.4.22C9.35,13,10,13.42,10.22,14.35ZM7,8.19c-1.45,0-2.83-1.63-3.08-3.55s.72-3.38,2.17-3.34S8.89,2.89,9.14,4.8,8.42,8.23,7,8.19Zm10.68-4V1.63H16V4.17H13.5V5.85H16v2.5h1.66V5.85h2.48V4.17Z" transform="translate(-0.2 -0.84)"/></g></g></svg>