<svg xmlns="http://www.w3.org/2000/svg" viewBox="0 0 20.23 18.57"><defs><style>.cls-1{isolation:isolate;}.cls-2{fill-rule:evenodd;}</style></defs><title>linkedin</title><g id="linkedin" class="cls-1"><g id="linkedin-2" data-name="linkedin"><path class="cls-2" d="M.71,19.16H4.86V6.67H.71ZM15.46,6.25a4.59,4.59,0,0,0-4,2.13V6.67H7.33V19.16h4.14V12.39c0-1.43.72-2.83,2.36-2.83a2.69,2.69,0,0,1,2.63,2.79v6.8H20.6V12.08C20.6,7.16,17.27,6.25,15.46,6.25ZM2.8.59A2.33,2.33,0,0,0,.37,2.79,2.33,2.33,0,0,0,2.8,5a2.33,2.33,0,0,0,2.43-2.2A2.33,2.33,0,0,0,2.8.59Z" transform="translate(-0.37 -0.59)"/></g></g></svg>