<svg xmlns="http://www.w3.org/2000/svg" viewBox="0 0 27 22"><defs><style>.cls-1{isolation:isolate;}.cls-2{fill:#e74c3c;fill-rule:evenodd;}</style></defs><title>monitor</title><g id="monitor" class="cls-1"><g id="monitor-2" data-name="monitor"><path class="cls-2" d="M20.62,21.12H15.43V19.21a.45.45,0,0,0-.89,0v1.91H12.46V19.21a.45.45,0,0,0-.89,0v1.91H6.38a.44.44,0,1,0,0,.88H20.62a.44.44,0,1,0,0-.88ZM26,0H1A1,1,0,0,0,0,1V16.87a1,1,0,0,0,1,1H20.77V18a.45.45,0,0,0,.89,0v-.15h.89V18a.45.45,0,0,0,.89,0v-.15h.89V18a.45.45,0,0,0,.89,0v-.15H26a1,1,0,0,0,1-1V1A1,1,0,0,0,26,0Zm.15,16.87A.15.15,0,0,1,26,17H1a.15.15,0,0,1-.15-.15V1A.15.15,0,0,1,1,.88H26a.15.15,0,0,1,.15.15ZM24.77,1.76H2.23a.44.44,0,1,0,0,.88h22.1v8.95a.45.45,0,0,0,.89,0V2.2A.44.44,0,0,0,24.77,1.76Zm0,11.15a.44.44,0,0,0-.45.44v1.91H2.67V4a.45.45,0,0,0-.89,0V15.69a.44.44,0,0,0,.45.44H24.77a.44.44,0,0,0,.45-.44V13.35A.44.44,0,0,0,24.77,12.91Z" transform="translate(0 0)"/></g></g></svg>