<svg xmlns="http://www.w3.org/2000/svg" viewBox="0 0 25 22"><defs><style>.cls-1{isolation:isolate;}.cls-2{fill:#e74c3c;fill-rule:evenodd;}</style></defs><title>photo</title><g id="photo" class="cls-1"><g id="photo-2" data-name="photo"><path class="cls-2" d="M21.65,4.2H19L16.51.39A.83.83,0,0,0,15.82,0H9.05a.83.83,0,0,0-.67.38L5.78,4.19H3.35A3.39,3.39,0,0,0,0,7.6v11A3.41,3.41,0,0,0,3.35,22h18.3A3.41,3.41,0,0,0,25,18.58V7.6A3.39,3.39,0,0,0,21.65,4.2Zm0,16.13H3.35a1.75,1.75,0,0,1-1.7-1.75V7.6a1.72,1.72,0,0,1,1.7-1.73H6.22A.82.82,0,0,0,6.9,5.5l2.6-3.81h5.89l2.5,3.79a.85.85,0,0,0,.67.38l3.08,0a1.72,1.72,0,0,1,1.7,1.73v11h0A1.75,1.75,0,0,1,21.65,20.33ZM12.57,6.21a5.91,5.91,0,1,0,5.84,5.91A5.88,5.88,0,0,0,12.57,6.21Zm0,10.16a4.24,4.24,0,1,1,4.19-4.24A4.23,4.23,0,0,1,12.57,16.36Zm7.82-8a.32.32,0,1,0,.32.32A.32.32,0,0,0,20.38,8.33Zm0-.83a1.15,1.15,0,1,0,1.14,1.16A1.14,1.14,0,0,0,20.38,7.5Zm0,1.67a.51.51,0,0,1-.51-.51.51.51,0,1,1,1,0A.51.51,0,0,1,20.38,9.17Z" transform="translate(0 0)"/></g></g></svg>