<svg xmlns="http://www.w3.org/2000/svg" viewBox="0 0 19.87 19.97"><defs><style>.cls-1{isolation:isolate;}.cls-2{fill-rule:evenodd;}</style></defs><title>rss</title><g id="rss" class="cls-1"><g id="rss-2" data-name="rss"><path class="cls-2" d="M3.34,14.18a2.89,2.89,0,1,0,2.9,2.89A2.9,2.9,0,0,0,3.34,14.18ZM.59,6.69H.44v3.69H.59A9.5,9.5,0,0,1,10,19.76c0,.08,0,.15,0,.23h3.7c0-.08,0-.15,0-.23A13.2,13.2,0,0,0,.59,6.69ZM.59,0H.44V3.75H.59a16.13,16.13,0,0,1,16.07,16c0,.08,0,.15,0,.23H20.3c0-.08,0-.15,0-.23A19.81,19.81,0,0,0,.59,0Z" transform="translate(-0.44 -0.02)"/></g></g></svg>