<svg xmlns="http://www.w3.org/2000/svg" viewBox="0 0 19.9 19.99"><defs><style>.cls-1{isolation:isolate;}.cls-2{fill-rule:evenodd;}</style></defs><title>skype</title><g id="skype" class="cls-1"><g id="skype-2" data-name="skype"><path class="cls-2" d="M18.94,11.35A8.94,8.94,0,0,0,19,10a8.69,8.69,0,0,0-8.87-8.68,9,9,0,0,0-1.34.11A5.25,5.25,0,0,0,5.55,0a5.08,5.08,0,0,0-4,8.13,9.12,9.12,0,0,0,8.67,11A8.89,8.89,0,0,0,12,19a4.84,4.84,0,0,0,3.32,1,5.08,5.08,0,0,0,3.61-8.64Zm-4.62,2.76a3.42,3.42,0,0,1-1.53,1.17,6.13,6.13,0,0,1-2.39.42,5.76,5.76,0,0,1-2.74-.58A3.53,3.53,0,0,1,6.41,14a2.39,2.39,0,0,1-.48-1.35A.87.87,0,0,1,6.22,12a1,1,0,0,1,.73-.27.9.9,0,0,1,.61.21,1.64,1.64,0,0,1,.42.63,4.09,4.09,0,0,0,.46.82,1.84,1.84,0,0,0,.7.55,2.78,2.78,0,0,0,1.19.22A2.83,2.83,0,0,0,12,13.73a1.28,1.28,0,0,0,.63-1.08,1.1,1.1,0,0,0-.34-.84,2.25,2.25,0,0,0-.88-.49q-.54-.17-1.44-.36a11.21,11.21,0,0,1-2-.61,3.24,3.24,0,0,1-1.29-1,2.34,2.34,0,0,1-.48-1.5,2.44,2.44,0,0,1,.5-1.52,3.16,3.16,0,0,1,1.46-1A6.42,6.42,0,0,1,10.36,5a6,6,0,0,1,1.79.24,3.89,3.89,0,0,1,1.25.63,2.69,2.69,0,0,1,.73.82,1.78,1.78,0,0,1,.23.84,1,1,0,0,1-1,1,.87.87,0,0,1-.59-.18,2.42,2.42,0,0,1-.44-.59,2.69,2.69,0,0,0-.73-.91,2.27,2.27,0,0,0-1.38-.33,2.52,2.52,0,0,0-1.42.36,1,1,0,0,0-.54.86.83.83,0,0,0,.18.54,1.49,1.49,0,0,0,.5.39,3.6,3.6,0,0,0,.65.26l1.09.27q.95.21,1.72.45a5.47,5.47,0,0,1,1.31.6,2.54,2.54,0,0,1,.84.9,2.67,2.67,0,0,1,.3,1.32A2.88,2.88,0,0,1,14.32,14.11Z" transform="translate(-0.5 0)"/></g></g></svg>