<svg xmlns="http://www.w3.org/2000/svg" viewBox="0 0 19.9 16.37"><defs><style>.cls-1{isolation:isolate;}.cls-2{fill-rule:evenodd;}</style></defs><title>twitter</title><g id="twitter" class="cls-1"><g id="twitter-2" data-name="twitter"><path class="cls-2" d="M20.54,3.06a7.17,7.17,0,0,1-2.28.65A4.38,4.38,0,0,0,20,1.47a6.6,6.6,0,0,1-2.56.91h0a4.21,4.21,0,0,0-3-1.41,4.08,4.08,0,0,0-3.92,4.25,4.16,4.16,0,0,0,.1.92h0A11.9,11.9,0,0,1,2,1.72a4.34,4.34,0,0,0,1.25,5.6,2.63,2.63,0,0,1-1.79-.47,4,4,0,0,0,3.17,4A3.23,3.23,0,0,1,2.9,11a3.88,3.88,0,0,0,3.67,2.8A7.28,7.28,0,0,1,.65,15.52a12.29,12.29,0,0,0,6.42,1.82,11.66,11.66,0,0,0,11.77-12v0s0,0,0-.05,0,0,0-.06A6.71,6.71,0,0,0,20.54,3.06Z" transform="translate(-0.65 -0.98)"/></g></g></svg>