<svg xmlns="http://www.w3.org/2000/svg" viewBox="0 0 19.9 17.46"><defs><style>.cls-1{isolation:isolate;}.cls-2{fill-rule:evenodd;}</style></defs><title>vimeo</title><g id="vimeo" class="cls-1"><g id="vimeo-2" data-name="vimeo"><path class="cls-2" d="M17,.69c-2.53,0-4.51,1.81-5.36,4.86.93-.44,2.63-.67,2.76.86S12.23,11.9,11.2,11.9,9.42,7.43,9.15,5.39,8.41,1.5,6.47,1.5,2,4.11.29,5.48L1.2,6.72s1.29-1,1.75-.93c1.18.3,2.19,5.07,2.7,6.88s1.14,5.48,3.67,5.48c4.09,0,10.86-10.07,10.86-13.36C20.18,2.64,19.57.69,17,.69Z" transform="translate(-0.29 -0.69)"/></g></g></svg>